name Walk8.mot
datacolumns 19
datarows 27
range 2.09500000 2.22500000
endheader

                time	   L_ground_force_vx	   L_ground_force_vy	   L_ground_force_vz	   L_ground_force_px	   L_ground_force_py	   L_ground_force_pz	   R_ground_force_vx	   R_ground_force_vy	   R_ground_force_vz	   R_ground_force_px	   R_ground_force_py	   R_ground_force_pz	   L_ground_torque_x	   L_ground_torque_y	   L_ground_torque_z	   R_ground_torque_x	   R_ground_torque_y	   R_ground_torque_z	
          2.09500000	          5.66895364	         49.26877842	         -6.48452032	          0.00074926	          0.00000000	          0.00043737	         -0.00000000	          0.00000000	          0.00000000	          0.00000000	          0.00000000	          0.00000000	          0.00000000	         -0.07270933	          0.00000000	          0.00000000	         -0.00000000	          0.00000000	
          2.10000000	          4.56799956	         81.77564721	        -10.20253613	         -0.11912370	          0.00000000	         -0.01521960	         -0.00000000	          0.00000000	          0.00000000	          0.00000000	          0.00000000	          0.00000000	          0.00000000	         -0.10482893	          0.00000000	          0.00000000	         -0.00000000	          0.00000000	
          2.10500000	          2.97537379	        117.34361554	        -13.69701290	         -0.22991168	          0.00000000	         -0.02980229	         -0.00000000	          0.00000000	          0.00000000	          0.00000000	          0.00000000	          0.00000000	          0.00000000	         -0.13656364	          0.00000000	          0.00000000	         -0.00000000	          0.00000000	
          2.11000000	          0.66934770	        154.48791579	        -16.64381930	         -0.32591090	          0.00000000	         -0.04259735	         -0.00000000	          0.00000000	          0.00000000	          0.00000000	          0.00000000	          0.00000000	          0.00000000	         -0.16521219	          0.00000000	          0.00000000	         -0.00000000	          0.00000000	
          2.11500000	         -2.63057115	        191.83644945	        -18.74552358	         -0.40458894	          0.00000000	         -0.05330343	         -0.00000000	          0.00000000	          0.00000000	          0.00000000	          0.00000000	          0.00000000	          0.00000000	         -0.18902323	          0.00000000	          0.00000000	          0.00000000	          0.00000000	
          2.12000000	         -7.15599652	        228.54297339	        -19.74973572	         -0.46565843	          0.00000000	         -0.06191169	         -0.00000000	          0.00000000	          0.00000000	          0.00000000	          0.00000000	          0.00000000	          0.00000000	         -0.20860300	          0.00000000	          0.00000000	          0.00000000	          0.00000000	
          2.12500000	        -12.99474882	        264.22566851	        -19.45328479	         -0.51030069	          0.00000000	         -0.06860270	         -0.00000000	          0.00000000	         -0.00000000	          0.00000000	          0.00000000	         -0.00000000	          0.00000000	         -0.22723517	          0.00000000	          0.00000000	          0.00000000	          0.00000000	
          2.13000000	        -20.05962453	        298.74880838	        -17.71867129	         -0.54054715	          0.00000000	         -0.07365867	         -0.00000000	          0.00000000	         -0.00000000	         -0.00000000	          0.00000000	         -0.00000000	          0.00000000	         -0.25028020	          0.00000000	          0.00000000	          0.00000000	          0.00000000	
          2.13500000	        -28.10699170	        332.17310826	        -14.49611949	         -0.55881550	          0.00000000	         -0.07739576	         -0.00000000	         -0.00000000	         -0.00000000	         -0.00000000	          0.00000000	         -0.00000000	          0.00000000	         -0.28396892	          0.00000000	          0.00000000	          0.00000000	          0.00000000	
          2.14000000	        -36.81754984	        364.77441992	         -9.83410961	         -0.56758768	          0.00000000	         -0.08012082	          0.00000000	         -0.00000000	         -0.00000000	         -0.00000000	          0.00000000	         -0.00000000	          0.00000000	         -0.33287002	          0.00000000	          0.00000000	          0.00000000	          0.00000000	
          2.14500000	        -45.91427428	        396.91050323	         -3.87613581	         -0.56920728	          0.00000000	         -0.08210388	          0.00000000	         -0.00000001	         -0.00000000	         -0.00000000	          0.00000000	         -0.00000000	          0.00000000	         -0.39717470	          0.00000000	          0.00000000	          0.00000000	          0.00000000	
          2.15000000	        -55.24052074	        428.77552615	          3.14012253	         -0.56576552	          0.00000000	         -0.08355850	          0.00000000	         -0.00000001	         -0.00000000	         -0.00000000	          0.00000000	         -0.00000000	          0.00000000	         -0.47083034	          0.00000000	          0.00000000	          0.00000000	          0.00000000	
          2.15500000	        -64.73775365	        460.26171920	         10.87550464	         -0.55904153	          0.00000000	         -0.08463992	          0.00000000	         -0.00000002	         -0.00000000	         -0.00000000	          0.00000000	         -0.00000000	          0.00000000	         -0.54172584	          0.00000000	          0.00000000	          0.00000000	          0.00000000	
          2.16000000	        -74.33074486	        491.04133876	         18.90874332	         -0.55047585	          0.00000000	         -0.08545625	          0.00000000	         -0.00000003	         -0.00000000	         -0.00000000	          0.00000000	         -0.00000000	          0.00000000	         -0.59423418	          0.00000000	          0.00000000	          0.00000000	          0.00000000	
          2.16500000	        -83.82993840	        520.79351419	         26.81619405	         -0.54117784	          0.00000000	         -0.08607915	          0.00000000	         -0.00000004	         -0.00000001	         -0.00000000	          0.00000000	         -0.00000000	          0.00000000	         -0.61376473	          0.00000000	          0.00000000	          0.00000000	          0.00000000	
          2.17000000	        -92.95047172	        549.42615353	         34.25884673	         -0.53195502	          0.00000000	         -0.08655340	          0.00000001	         -0.00000005	         -0.00000001	         -0.00000000	          0.00000000	         -0.00000000	          0.00000000	         -0.59118814	          0.00000000	          0.00000000	          0.00000000	          0.00000000	
          2.17500000	       -101.41219826	        577.10687311	         41.00801851	         -0.52335309	          0.00000000	         -0.08690661	          0.00000001	         -0.00000006	         -0.00000001	         -0.00000000	          0.00000000	         -0.00000000	          0.00000000	         -0.52456335	          0.00000000	          0.00000000	          0.00000000	          0.00000000	
          2.18000000	       -109.00959823	        604.12310950	         46.93811664	         -0.51569950	          0.00000000	         -0.08715710	          0.00000001	         -0.00000007	         -0.00000001	         -0.00000000	          0.00000000	         -0.00000000	          0.00000000	         -0.41874646	          0.00000000	          0.00000000	          0.00000000	          0.00000000	
          2.18500000	       -115.61186420	        630.73806324	         52.01324693	         -0.50915292	          0.00000000	         -0.08731833	          0.00000001	         -0.00000008	         -0.00000000	         -0.00000000	          0.00000000	         -0.00000000	          0.00000000	         -0.28272885	          0.00000000	          0.00000000	         -0.00000000	          0.00000000	
          2.19000000	       -121.13252517	        657.11537678	         56.25519096	         -0.50375110	          0.00000000	         -0.08740051	          0.00000001	         -0.00000008	         -0.00000000	         -0.00000000	          0.00000000	         -0.00000000	          0.00000000	         -0.12612838	          0.00000000	          0.00000000	         -0.00000000	          0.00000000	
          2.19500000	       -125.50947537	        683.28200125	         59.71290192	         -0.49944823	          0.00000000	         -0.08741283	          0.00000001	         -0.00000007	          0.00000000	         -0.00000000	          0.00000000	          0.00000000	          0.00000000	          0.04235858	          0.00000000	          0.00000000	         -0.00000000	          0.00000000	
          2.20000000	       -128.70555285	        709.11556024	         62.45263277	         -0.49614396	          0.00000000	         -0.08736531	          0.00000001	         -0.00000004	          0.00000001	          0.00000000	          0.00000000	          0.00000000	          0.00000000	          0.21443954	          0.00000000	          0.00000000	         -0.00000000	          0.00000000	
          2.20500000	       -130.71789138	        734.35892727	         64.56022036	         -0.49370344	          0.00000000	         -0.08727044	          0.00000000	          0.00000000	          0.00000002	          0.00000000	          0.00000000	          0.00000000	          0.00000000	          0.38217406	          0.00000000	          0.00000000	         -0.00000000	          0.00000000	
          2.21000000	       -131.58231569	        758.64459705	         66.13590629	         -0.49197599	          0.00000000	         -0.08714341	         -0.00000000	          0.00000007	          0.00000003	          0.00000000	          0.00000000	          0.00000000	          0.00000000	          0.53789270	          0.00000000	          0.00000000	         -0.00000001	          0.00000000	
          2.21500000	       -131.36860004	        781.53287752	         67.28224577	         -0.49081107	          0.00000000	         -0.08699943	         -0.00000001	          0.00000017	          0.00000004	          0.00000000	          0.00000000	          0.00000000	          0.00000000	          0.67511007	          0.00000000	          0.00000000	         -0.00000001	          0.00000000	
          2.22000000	       -130.17893516	        802.57184642	         68.10024179	         -0.49006764	          0.00000000	         -0.08685253	         -0.00000003	          0.00000030	          0.00000006	          0.00000000	          0.00000000	          0.00000000	          0.00000000	          0.78959920	          0.00000000	          0.00000000	         -0.00000001	          0.00000000	
          2.22500000	       -128.14305304	        821.35713107	         68.68896781	         -0.48961855	          0.00000000	         -0.08671589	         -0.00000005	          0.00000046	          0.00000008	          0.00000000	          0.00000000	          0.00000000	          0.00000000	          0.87915826	          0.00000000	          0.00000000	         -0.00000001	          0.00000000	
